<svg height="512pt" preserveAspectRatio="xMidYMid meet" viewBox="0 0 431 512" width="431pt" xmlns="http://www.w3.org/2000/svg"><path d="m2090 5043c0-5 4-13 9-18 20-21 41-123 41-200 0-112-29-218-95-350-110-220-250-383-598-692-373-331-660-623-838-853-257-331-418-669-491-1033-20-96-23-142-22-322 0-177 3-226 22-311 27-123 81-282 129-378 182-364 534-654 973-804 164-56 187-60 120-21-123 72-276 215-353 332-53 79-104 192-122 269-19 81-19 247 0 336 48 232 190 454 404 633 52 44 97 79 101 79s1-28-6-62c-30-143-8-248 72-337 26-29 69-62 102-78 50-25 68-28 152-28 82 0 103 4 152 27 74 34 132 95 159 166 17 46 20 73 17 142-5 117-38 185-152 315-112 128-190 246-229 343-29 71-31 87-32 197 0 108 3 128 29 198 33 92 105 204 168 265l45 44-5-70c-6-84 12-144 69-232 85-132 224-241 584-460 322-196 464-299 606-441 382-382 461-859 205-1243-94-140-248-275-427-370-46-25-78-46-70-46 41 0 316 104 451 171 254 126 417 245 602 438 167 173 282 362 353 575 54 161 68 269 62 475-4 153-8 191-35 291-118 455-437 840-928 1119-49 28-93 51-96 51s-3-11 0-25c2-14 8-25 12-25 11 0-3-56-27-112-88-196-393-254-565-106-45 38-107 138-127 203-45 145-35 266 44 535 86 292 99 406 70 585-41 256-177 498-401 717-88 86-134 124-134 111z" transform="matrix(.1 0 0 -.1 0 512)"/></svg>